<svg id="SvgjsSvg1006" width="703" height="200" xmlns="http://www.w3.org/2000/svg" version="1.1" xmlns:xlink="http://www.w3.org/1999/xlink" xmlns:svgjs="http://svgjs.com/svgjs"><defs id="SvgjsDefs1007"><marker id="SvgjsMarker1051" markerWidth="16" markerHeight="12" refX="16" refY="6" viewBox="0 0 16 12" orient="auto" markerUnits="userSpaceOnUse" stroke-dasharray="0,0"><path id="SvgjsPath1052" d="M0,2 L14,6 L0,11 L0,2" fill="#323232" stroke="#323232" stroke-width="2"></path></marker></defs><rect id="SvgjsRect1008" width="703" height="200" fill="#ffffff"></rect><g id="SvgjsG1009" transform="translate(25,61)"><path id="SvgjsPath1010" d="M 0 4Q 0 0 4 0L 226 0Q 230 0 230 4L 230 74Q 230 78 226 78L 4 78Q 0 78 0 74Z" stroke="rgba(50,50,50,1)" stroke-width="2" fill-opacity="1" fill="#ffffff"></path><path id="SvgjsPath1011" d="M 0 30L 230 30" stroke="rgba(50,50,50,1)" stroke-width="2" fill="none"></path><path id="SvgjsPath1012" d="M 0 0L 230 0L 230 78L 0 78Z" stroke="none" fill="none"></path><g id="SvgjsG1013"><text id="SvgjsText1014" font-family="微软雅黑" text-anchor="middle" font-size="13px" width="210px" fill="#323232" font-weight="700" align="middle" anchor="middle" family="微软雅黑" size="13px" weight="700" font-style="" opacity="1" y="5.05" transform="rotate(0)"><tspan id="SvgjsTspan1015" dy="16" x="115"><tspan id="SvgjsTspan1016" style="text-decoration:;">Enemy</tspan></tspan></text></g><g id="SvgjsG1017"><text id="SvgjsText1018" font-family="微软雅黑" text-anchor="start" font-size="13px" width="210px" fill="#323232" font-weight="400" align="middle" anchor="start" family="微软雅黑" size="13px" weight="400" font-style="" opacity="1" y="28.05" transform="rotate(0)"><tspan id="SvgjsTspan1019" dy="16" x="10"><tspan id="SvgjsTspan1020" style="text-decoration:;">+ operation1(params):returnType</tspan></tspan><tspan id="SvgjsTspan1021" dy="16" x="10"><tspan id="SvgjsTspan1022" style="text-decoration:;">- operation2(params)</tspan></tspan><tspan id="SvgjsTspan1023" dy="16" x="10"><tspan id="SvgjsTspan1024" style="text-decoration:;">- operation3()</tspan></tspan></text></g></g><g id="SvgjsG1025" transform="translate(448,25)"><path id="SvgjsPath1026" d="M 0 4Q 0 0 4 0L 226 0Q 230 0 230 4L 230 146Q 230 150 226 150L 4 150Q 0 150 0 146Z" stroke="rgba(50,50,50,1)" stroke-width="2" fill-opacity="1" fill="#ffffff"></path><path id="SvgjsPath1027" d="M 0 30L 230 30M 0 90L 230 90" stroke="rgba(50,50,50,1)" stroke-width="2" fill="none"></path><path id="SvgjsPath1028" d="M 0 0L 230 0L 230 150L 0 150Z" stroke="none" fill="none"></path><g id="SvgjsG1029"><text id="SvgjsText1030" font-family="微软雅黑" text-anchor="middle" font-size="13px" width="210px" fill="#323232" font-weight="700" align="middle" anchor="middle" family="微软雅黑" size="13px" weight="700" font-style="" opacity="1" y="5.05" transform="rotate(0)"><tspan id="SvgjsTspan1031" dy="16" x="115"><tspan id="SvgjsTspan1032" style="text-decoration:;">类</tspan></tspan></text></g><g id="SvgjsG1033"><text id="SvgjsText1034" font-family="微软雅黑" text-anchor="start" font-size="13px" width="210px" fill="#323232" font-weight="400" align="middle" anchor="start" family="微软雅黑" size="13px" weight="400" font-style="" opacity="1" y="34.05" transform="rotate(0)"><tspan id="SvgjsTspan1035" dy="16" x="10"><tspan id="SvgjsTspan1036" style="text-decoration:;">+ attribute1:type = defaultValue</tspan></tspan><tspan id="SvgjsTspan1037" dy="16" x="10"><tspan id="SvgjsTspan1038" style="text-decoration:;">+ attribute2:type</tspan></tspan><tspan id="SvgjsTspan1039" dy="16" x="10"><tspan id="SvgjsTspan1040" style="text-decoration:;">- attribute3:type</tspan></tspan></text></g><g id="SvgjsG1041"><text id="SvgjsText1042" font-family="微软雅黑" text-anchor="start" font-size="13px" width="210px" fill="#323232" font-weight="400" align="middle" anchor="start" family="微软雅黑" size="13px" weight="400" font-style="" opacity="1" y="94.05" transform="rotate(0)"><tspan id="SvgjsTspan1043" dy="16" x="10"><tspan id="SvgjsTspan1044" style="text-decoration:;">+ operation1(params):returnType</tspan></tspan><tspan id="SvgjsTspan1045" dy="16" x="10"><tspan id="SvgjsTspan1046" style="text-decoration:;">- operation2(params)</tspan></tspan><tspan id="SvgjsTspan1047" dy="16" x="10"><tspan id="SvgjsTspan1048" style="text-decoration:;">- operation3()</tspan></tspan></text></g></g><g id="SvgjsG1049"><path id="SvgjsPath1050" d="M255 100L351.5 100L351.5 100L448 100" stroke="#323232" stroke-width="2" fill="none" marker-end="url(#SvgjsMarker1051)"></path></g></svg>